<svg xmlns="http://www.w3.org/2000/svg" width="111" height="32" fill="none"><path fill="#fff" d="M32.407 9.514c-5.773 0-10.496 4.723-10.496 10.496s4.723 10.496 10.496 10.496 10.497-4.723 10.497-10.496S38.18 9.514 32.407 9.514m5.117 10.365c0 2.886-2.23 5.248-4.986 5.248s-4.985-2.362-4.985-5.248 2.23-5.248 4.985-5.248 4.986 2.361 4.986 5.248m31.62-9.972c-.131-.13-.262-.13-.394-.13h-4.198c-.262 0-.525.262-.525.524v19.025c0 .13 0 .262.131.393.132.131.263.131.394.131h4.198c.263 0 .525-.262.525-.524V10.3c0-.131 0-.262-.13-.394m-2.493-2.624c1.575 0 2.887-1.312 2.887-2.886.13-1.574-1.312-2.887-2.887-2.887s-2.886 1.313-2.886 2.887c0 1.706 1.312 2.886 2.886 2.886M61.01 1.904H45.659c-.263 0-.525.263-.525.525v26.897c0 .13 0 .262.131.393s.263.131.394.131h4.198c.263 0 .525-.262.525-.524v-10.89h9.447c.13 0 .262 0 .393-.131.131-.132.131-.263.131-.394v-3.936c0-.263-.262-.525-.524-.525h-9.447V6.89H61.01c.13 0 .262 0 .393-.131.131-.132.131-.263.131-.394V2.429c0-.262-.262-.525-.524-.525M12.07 13.581c-4.198-1.837-5.51-2.624-5.51-4.198 0-2.1 1.968-2.756 3.805-2.756 1.968 0 4.067 1.05 4.067 3.936q0 .394.394.394h4.592c.131-.131.263-.262.263-.394 0-5.248-3.805-9.052-9.316-9.052-5.51 0-9.053 3.148-9.053 7.872 0 5.641 4.199 7.347 8.266 8.922l.262.13c3.805 1.444 5.117 2.1 5.117 3.937 0 2.493-2.624 2.886-4.067 2.886-2.755 0-4.854-1.968-4.854-4.592v-.262q0-.394-.394-.394H1.05c-.131 0-.394.131-.394.394v.393c0 5.773 4.199 9.71 10.103 9.71 5.642 0 9.447-3.28 9.447-8.004.13-4.855-2.362-6.56-8.135-8.922m97.485 15.482c0 .787-.525 1.312-1.312 1.312-.788 0-1.312-.525-1.312-1.312s.524-1.312 1.312-1.312c.787 0 1.312.525 1.312 1.312m-2.362 0c0 .656.394 1.05 1.05 1.05s1.049-.394 1.049-1.05-.393-1.05-1.049-1.05-1.05.394-1.05 1.05m1.574-.262c0 .13-.131.262-.262.393l.262.525h-.393l-.263-.525h-.131v.525h-.262v-1.312h.525c.262 0 .524.131.524.394m-.656-.131v.393h.132c.131 0 .262-.131.262-.131 0-.131-.131-.131-.262-.131h-.132zm-5.38-25.98a3.25 3.25 0 0 1 3.28 3.28 3.25 3.25 0 0 1-3.28 3.28 3.25 3.25 0 0 1-3.28-3.28 3.25 3.25 0 0 1 3.28-3.28m0-1.18c-2.493 0-4.592 2.099-4.592 4.592s2.099 4.592 4.592 4.592 4.592-2.1 4.592-4.592c0-2.493-2.099-4.592-4.592-4.592m2.186 18.456a4.592 4.592 0 1 0-4.387-8.068 4.592 4.592 0 0 0 4.387 8.067m-.007 9.841a4.592 4.592 0 1 0-4.387-8.068 4.592 4.592 0 0 0 4.387 8.068"/><path fill="#fff" d="M92.892 12.663c.918 0 1.706.393 2.362.918.656.656.918 1.444.918 2.362a3.25 3.25 0 0 1-3.28 3.28c-.918 0-1.706-.394-2.362-.918-.656-.656-.918-1.444-.918-2.362-.131-1.837 1.443-3.28 3.28-3.28m0-1.312c-2.493 0-4.592 2.1-4.592 4.592 0 2.493 2.099 4.592 4.592 4.592s4.592-2.1 4.592-4.592c0-2.493-2.1-4.592-4.592-4.592m-5.672 6.415a4.592 4.592 0 1 0-8.397-3.72 4.592 4.592 0 0 0 8.397 3.72m9.86-9.836a4.592 4.592 0 1 0-8.398-3.72 4.592 4.592 0 0 0 8.397 3.72m-9.847-.012a4.592 4.592 0 1 0-8.398-3.72 4.592 4.592 0 0 0 8.398 3.72m9.824 19.708a4.592 4.592 0 1 0-8.397-3.72 4.592 4.592 0 0 0 8.397 3.72m-14.005-5.123c.918 0 1.706.394 2.362.918.656.656.918 1.444.918 2.362a3.25 3.25 0 0 1-3.28 3.28 3.25 3.25 0 0 1-3.28-3.28c-.131-1.837 1.443-3.28 3.28-3.28m0-1.312c-2.493 0-4.592 2.1-4.592 4.592 0 2.493 2.1 4.592 4.592 4.592 2.493 0 4.592-2.1 4.592-4.592 0-2.493-2.1-4.592-4.592-4.592"/></svg>