<svg xmlns="http://www.w3.org/2000/svg" width="132" height="32" fill="none"><path fill="#fff" d="M36.197 7.568c0-4.403 2.582-6.966 8.614-6.966 2.253 0 4.58.29 6.578.795L50.88 5.33c-1.964-.36-4.25-.613-5.923-.613-3.162 0-4.18 1.082-4.18 3.645V17.6c0 2.563 1.018 3.645 4.18 3.645 1.672 0 3.962-.253 5.923-.614l.51 3.935c-1.999.505-4.326.795-6.579.795-6.032 0-8.614-2.564-8.614-6.966zM67.05 24.997h-3.633l-.326-1.19c-1.598 1.048-3.488 1.554-5.269 1.554-3.233 0-4.617-2.203-4.617-5.232 0-3.574 1.564-4.945 5.16-4.945h4.252v-1.84c0-1.947-.546-2.634-3.38-2.634-1.598 0-3.345.216-4.906.542l-.546-3.355c1.673-.505 4.109-.829 6.07-.829 5.56 0 7.196 1.948 7.196 6.35v11.585zm-4.43-6.64h-3.271c-1.452 0-1.853.398-1.853 1.732 0 1.227.4 1.769 1.781 1.769 1.31 0 2.508-.432 3.345-.903v-2.597zm13.305 7.117c-1.89 0-4.472-.434-6.107-1.01l.618-3.356c1.49.434 3.453.758 5.269.758 1.96 0 2.252-.434 2.252-1.768 0-1.082-.217-1.624-3.09-2.311-4.326-1.048-4.835-2.13-4.835-5.521 0-3.393 1.565-5.087 6.616-5.087 1.635 0 3.78.216 5.306.613l-.437 3.5c-1.344-.253-3.488-.505-4.869-.505-1.927 0-2.252.431-2.252 1.516 0 1.408.108 1.515 2.507 2.129 4.943 1.3 5.414 1.947 5.414 5.558 0 3.392-1.054 5.484-6.395 5.484zm19.658-.477V12.73c0-.94-.4-1.408-1.418-1.408-1.09 0-3.016.65-4.617 1.479v12.197h-4.434V.613L89.548 0v8.757c1.96-1.01 4.58-1.694 6.47-1.694 2.944 0 3.996 2.058 3.996 5.197V25H95.58zm7.342-6.387v-4.8c0-4.726 2.073-6.747 7.633-6.747 1.235 0 3.016.215 4.325.65l-.545 3.608c-1.198-.324-2.799-.469-3.672-.469-2.544 0-3.307.758-3.307 2.924v4.871c0 2.166.763 2.924 3.307 2.924 1.127 0 2.399-.145 3.672-.468l.545 3.608c-1.163.397-2.87.65-4.325.65-5.56 0-7.633-2.021-7.633-6.748zm21.37 6.748c-6.07 0-7.705-3.321-7.705-6.93V13.99c0-3.608 1.635-6.93 7.705-6.93 6.069 0 7.705 3.322 7.705 6.93v4.44c0 3.608-1.636 6.929-7.705 6.929m0-14.542c-2.362 0-3.271 1.047-3.271 3.031v4.727c0 1.984.909 3.031 3.271 3.031s3.271-1.047 3.271-3.032v-4.726c0-1.984-.91-3.031-3.271-3.031"/><path fill="#fff" fill-rule="evenodd" d="m25.75.434.006 24.185-12.879 7.38L0 24.62.006.434zM4.395 4.792v4.156h9.753l-9.965 9.895 2.959 2.938 9.866-9.796v9.486h4.185V4.791z" clip-rule="evenodd"/></svg>