<svg xmlns="http://www.w3.org/2000/svg" width="239" height="32" fill="none"><g clip-path="url(#a)"><path fill="#fff" d="M221.601.49a2.87 2.87 0 0 0-1.605-.49l-.003-.003a2.79 2.79 0 0 0-2.695 1.779 2.85 2.85 0 0 0-.191 1.126 2.9 2.9 0 0 0 1.783 2.682 2.88 2.88 0 0 0 3.147-.627c.405-.407.681-.924.792-1.487a2.9 2.9 0 0 0-.164-1.679A2.9 2.9 0 0 0 221.601.49m.675 8.2h-4.538v22.372h4.538zM112.87 2.896h4.538v16.268l7.525-10.461h4.918l-7.399 10.117 8.25 12.255h-5.279L117.408 19.2v11.862h-4.538zm-56.236 21.75V12.791H52.69v-4.1h3.944V2.942h4.538V8.69h5.632v4.1h-5.647v11.856c0 1.516.662 2.319 2.129 2.319h3.3v4.097h-3.3c-3.857 0-6.649-2.497-6.649-6.416zm10.565-4.77c0-7.707 5.186-11.81 10.77-11.81 3.325 0 6.161 1.292 7.892 3.787V8.687h4.538V31.06H85.86v-3.172c-1.728 2.488-4.567 3.79-7.893 3.79-5.577.01-10.768-4.094-10.769-11.8M78.9 27.409c3.945 0 6.96-2.72 6.96-7.53 0-4.809-3.015-7.529-6.96-7.529s-7.013 2.717-7.013 7.53c0 4.812 3.024 7.53 7.013 7.53m18.973-2.541h-4.699v.003c.487 4.267 3.942 6.83 8.555 6.83 4.614 0 8.156-2.993 8.156-7.05 0-5.33-3.893-6.123-7.206-6.799-2.451-.5-4.584-.935-4.584-3.095 0-1.695 1.514-2.677 3.235-2.677s2.883.848 3.37 2.407h4.698c-.486-3.928-3.768-6.416-8.068-6.416s-7.933 2.76-7.933 6.908c0 5.204 3.825 5.982 7.117 6.652 2.489.506 4.673.95 4.673 3.196 0 1.782-1.508 2.849-3.458 2.849s-3.326-.888-3.856-2.808M132.065 8.69h-.003l.003-.003zm0 0h4.535v3.316a9.15 9.15 0 0 1 3.301-2.911 9.1 9.1 0 0 1 4.271-1.03v4.726c-4.343-.76-7.581 1.292-7.581 5.838v12.44h-4.538zm12.713 16.49c0-3.658 2.13-5.66 6.426-6.82l7.095-1.87v-1.246c0-1.66-1.373-2.902-3.813-2.902-1.997 0-3.901.756-4.538 3.341h-4.862c.801-5.085 4.538-7.623 9.4-7.623 5.232 0 8.332 2.851 8.332 7.175v15.82h-4.538V28.65c-1.596 2.183-4.256 3.03-6.564 3.03-3.926.003-6.941-2.18-6.941-6.503zm7.937 2.585c2.701 0 5.584-1.738 5.584-5.126v-2.363l-6.118 1.606c-2.042.58-2.839 1.472-2.839 2.987 0 2.008 1.504 2.899 3.37 2.899zm17.644 3.297V27.94c1.771 2.435 4.563 3.746 7.933 3.759 5.54 0 10.775-4.097 10.775-11.809s-5.235-11.812-10.775-11.812c-3.37 0-6.165 1.284-7.933 3.734V2.896h-4.539v28.166zm13.972-11.184c0 4.81-3.015 7.53-6.963 7.53h-.012c-3.989 0-7.001-2.718-7.001-7.53s3.066-7.53 7.013-7.53 6.963 2.72 6.963 7.53m12.029 8.066v3.118h-4.538V2.896h4.538v8.916c1.774-2.45 4.566-3.734 7.936-3.734 5.54 0 10.769 4.1 10.769 11.812s-5.229 11.81-10.769 11.81c-3.37-.013-6.162-1.324-7.936-3.759zm7.013-.537c3.944 0 6.959-2.72 6.959-7.53 0-4.809-3.015-7.529-6.959-7.529-3.945 0-7.013 2.717-7.013 7.53 0 4.812 3.015 7.53 7.003 7.53zm25.313-2.76V12.79h-3.948v-4.1h3.948V2.942h4.538V8.69h5.631v4.1h-5.631v11.856c0 1.516.663 2.319 2.129 2.319h3.301v4.097h-3.301c-3.872 0-6.664-2.497-6.664-6.416zM31.98 6.923c5.653-.63 12.46 2.425 14.504 8.176h-.003a2.3 2.3 0 0 1-.189 1.935c-2.278 3.86-5.508 4.897-8.308 5.796-3.183 1.02-5.81 1.863-5.853 6.471l.004.634c.004.556.009 1.22.009 1.637v.082l-.004.009h-2.958a.585.585 0 0 1-.58-.58c-.002-.283 0-.602 0-.871.001-.295.003-.53 0-.594-.114-2.086.73-5.352 2.552-7.304 1.653-1.642 3.373-2.095 5.104-2.55 2.078-.548 4.172-1.1 6.187-3.718a.58.58 0 0 0 .104-.524c-.836-2.76-4.969-5.675-10.603-4.916a.58.58 0 0 0-.5.493c-.44 2.899-2.031 5.713-4.883 6.538-2.663.904-4.048-.443-5.617-1.97-.613-.597-1.253-1.22-2.009-1.748-3.03-2.055-7.694-2.466-11.076-.508l-.026.015-.025.016c-12.634 8.74 6.109 23.112 11.325 8.92a.584.584 0 0 1 .66-.374l1.163.226 1.258.245c.32.062.531.376.459.696C19.685 36.254-.738 33.628.022 19.834.7 8.292 15.816 5.133 22.76 12.449l.27.287c.96 1.018 1.201 1.273 2.079 1.253 1.592.013 2.091-1.757 2.088-1.757.098-.48-.191-.81-.653-.913-2.6-.586-4.098-1.167-5.571-2.38-1.454-1.202-2.56-2.72-3.512-6.068-.423-1.49.296-2.87 2.347-2.87 2.955.002 4.717.231 6.667 1.398 1.73 1.032 3.14 2.548 4.368 5.036.151.31.792.527 1.137.489m-4.605 1.29h.005c.345-.035.603-.336.483-.685-1.433-4.131-5.77-4.52-6.39-4.576h-.007c-.497-.045-.619.228-.51.567 1.673 5.186 6.168 4.72 6.42 4.693"/></g><defs><clipPath id="a"><path fill="#fff" d="M0 0h239v32H0z"/></clipPath></defs></svg>