<svg xmlns="http://www.w3.org/2000/svg" width="60" height="20" viewBox="0 0 60 20" fill="none">
  <defs>
    <mask id="link-icon-cutout">
      <circle cx="10" cy="10" r="10" fill="white"/>
      <path d="M9.536 4.001H6.452c.602 2.508 2.351 4.655 4.545 6.001-2.196 1.347-3.943 3.493-4.545 6.001h3.084c.762-2.32 2.88-4.134 5.48-4.545V8.55c-2.599-.411-4.716-2.228-5.48-4.548v-.002Z" fill="black"/>
    </mask>
  </defs>
  <circle cx="10" cy="10" r="10" fill="currentColor" mask="url(#link-icon-cutout)"/>
  <path d="M42.121 6.16c2.617 0 4.057 1.584 4.057 4.8v7.445h-3.025v-6.698c0-1.896-.72-2.688-2.305-2.688-1.585 0-2.641 1.199-2.641 3.335v6.05h-3.024V6.398h3.024V7.96c.792-1.104 2.042-1.8 3.914-1.8Zm-9.267 12.244H29.83V6.401h3.025v12.003Zm-5.354-.002h-3V1.6h3v16.802Zm24.03-7.825c1.99-.647 3.792-2.16 4.584-4.178h3.02c-.61 2.11-2.16 4.196-4.436 5.594 2.42 1.48 4.166 3.866 4.631 6.41h-3.046c-.623-2.425-2.449-4.416-4.754-4.994v4.993h-3.024V1.6h3.024v8.977ZM31.34 1.36c.936 0 1.728.77 1.728 1.704 0 .936-.768 1.728-1.727 1.728a1.722 1.722 0 0 1-1.728-1.728c0-.935.793-1.704 1.728-1.704Z" fill="currentColor"/>
</svg>
